<svg xmlns="http://www.w3.org/2000/svg" xmlns:xlink="http://www.w3.org/1999/xlink" width="375" zoomAndPan="magnify" viewBox="0 0 281.25 281.249989" height="375" preserveAspectRatio="xMidYMid meet" version="1.0"><defs><clipPath id="59c08a6619"><path d="M 0 0 L 280.503906 0 L 280.503906 280.503906 L 0 280.503906 Z M 0 0 " clip-rule="nonzero"/></clipPath><clipPath id="07ddc5c0dc"><path d="M 0 5.160156 L 280.503906 5.160156 L 280.503906 275.1875 L 0 275.1875 Z M 0 5.160156 " clip-rule="nonzero"/></clipPath><clipPath id="469340881a"><path d="M 1.523438 12.234375 L 253.339844 12.234375 L 253.339844 264.050781 L 1.523438 264.050781 Z M 1.523438 12.234375 " clip-rule="nonzero"/></clipPath><clipPath id="9cdf83a2bb"><path d="M 127.433594 12.234375 C 57.898438 12.234375 1.523438 68.605469 1.523438 138.140625 C 1.523438 207.679688 57.898438 264.050781 127.433594 264.050781 C 196.96875 264.050781 253.339844 207.679688 253.339844 138.140625 C 253.339844 68.605469 196.96875 12.234375 127.433594 12.234375 Z M 127.433594 12.234375 " clip-rule="nonzero"/></clipPath></defs><g clip-path="url(#59c08a6619)"><path fill="#ffffff" d="M 0 0 L 280.503906 0 L 280.503906 280.503906 L 0 280.503906 Z M 0 0 " fill-opacity="1" fill-rule="nonzero"/><path fill="#ffffff" d="M 0 0 L 280.503906 0 L 280.503906 280.503906 L 0 280.503906 Z M 0 0 " fill-opacity="1" fill-rule="nonzero"/></g><g clip-path="url(#07ddc5c0dc)"><rect x="-28.125" width="337.5" fill="#ffffff" y="-28.124999" height="337.499986" fill-opacity="1"/><rect x="-28.125" width="337.5" fill="#fffdfa" y="-28.124999" height="337.499986" fill-opacity="1"/></g><g clip-path="url(#469340881a)"><g clip-path="url(#9cdf83a2bb)"><path stroke-linecap="butt" transform="matrix(0.936503, 0, 0, 0.936503, 1.525337, 12.23272)" fill="none" stroke-linejoin="miter" d="M 134.445188 0.00176696 C 60.195354 0.00176696 -0.00202882 60.194979 -0.00202882 134.444813 C -0.00202882 208.698818 60.195354 268.89203 134.445188 268.89203 C 208.695023 268.89203 268.888234 208.698818 268.888234 134.444813 C 268.888234 60.194979 208.695023 0.00176696 134.445188 0.00176696 Z M 134.445188 0.00176696 " stroke="#fcc434" stroke-width="8" stroke-opacity="1" stroke-miterlimit="4"/></g></g><path fill="#fffdfb" d="M 219.777344 228.886719 C 220.039062 229.15625 220.273438 229.449219 220.480469 229.761719 C 220.683594 230.074219 220.859375 230.40625 221 230.75 C 221.144531 231.097656 221.25 231.453125 221.320312 231.824219 C 221.390625 232.191406 221.429688 232.5625 221.429688 232.9375 C 221.429688 233.3125 221.390625 233.683594 221.320312 234.046875 C 221.25 234.417969 221.144531 234.777344 221 235.121094 C 220.859375 235.46875 220.683594 235.800781 220.480469 236.113281 C 220.273438 236.425781 220.039062 236.71875 219.777344 236.984375 C 218.25 238.414062 216.683594 239.8125 215.09375 241.175781 C 213.5 242.53125 211.871094 243.851562 210.21875 245.136719 C 208.558594 246.421875 206.871094 247.667969 205.160156 248.867188 C 203.441406 250.070312 201.699219 251.238281 199.929688 252.359375 C 198.160156 253.480469 196.363281 254.5625 194.546875 255.601562 C 192.726562 256.640625 190.882812 257.636719 189.015625 258.589844 C 187.152344 259.539062 185.261719 260.445312 183.351562 261.308594 C 181.445312 262.171875 179.511719 262.992188 177.566406 263.769531 C 175.621094 264.539062 173.65625 265.265625 171.667969 265.949219 C 169.6875 266.625 167.695312 267.261719 165.679688 267.851562 C 163.667969 268.4375 161.644531 268.976562 159.605469 269.46875 C 157.574219 269.960938 155.523438 270.40625 153.464844 270.800781 C 151.40625 271.195312 149.339844 271.546875 147.265625 271.84375 C 145.195312 272.144531 143.109375 272.398438 141.027344 272.597656 C 138.941406 272.800781 136.851562 272.953125 134.761719 273.054688 C 132.667969 273.15625 130.570312 273.214844 128.476562 273.222656 C 126.378906 273.226562 124.28125 273.183594 122.191406 273.089844 C 120.097656 272.996094 118.003906 272.855469 115.921875 272.664062 C 113.835938 272.476562 111.753906 272.234375 109.675781 271.949219 C 107.601562 271.660156 105.535156 271.324219 103.476562 270.9375 C 101.410156 270.554688 99.363281 270.117188 97.324219 269.636719 C 95.285156 269.152344 93.257812 268.625 91.242188 268.050781 C 89.226562 267.476562 87.226562 266.851562 85.242188 266.175781 C 83.257812 265.507812 81.285156 264.792969 79.335938 264.03125 C 77.386719 263.265625 75.449219 262.460938 73.535156 261.605469 C 71.625 260.753906 69.726562 259.855469 67.859375 258.914062 C 65.984375 257.972656 64.136719 256.988281 62.3125 255.960938 C 60.484375 254.929688 58.683594 253.855469 56.910156 252.746094 C 55.132812 251.632812 53.386719 250.476562 51.664062 249.28125 C 49.941406 248.085938 48.25 246.851562 46.585938 245.578125 C 44.925781 244.300781 43.289062 242.988281 41.683594 241.636719 C 40.085938 240.289062 38.515625 238.898438 36.980469 237.472656 C 36.714844 237.210938 36.480469 236.917969 36.269531 236.609375 C 36.066406 236.296875 35.890625 235.964844 35.75 235.621094 C 35.601562 235.273438 35.496094 234.917969 35.421875 234.550781 C 35.347656 234.179688 35.308594 233.808594 35.304688 233.4375 C 35.304688 233.0625 35.339844 232.691406 35.40625 232.320312 C 35.480469 231.957031 35.582031 231.59375 35.726562 231.25 C 35.863281 230.902344 36.039062 230.570312 36.238281 230.257812 C 36.441406 229.941406 36.675781 229.648438 36.933594 229.382812 L 48.292969 218.144531 C 48.5625 217.863281 48.855469 217.609375 49.171875 217.390625 C 49.488281 217.171875 49.828125 216.988281 50.183594 216.832031 C 50.539062 216.679688 50.902344 216.5625 51.28125 216.480469 C 51.660156 216.402344 52.039062 216.363281 52.425781 216.359375 C 52.816406 216.351562 53.195312 216.386719 53.578125 216.464844 C 53.957031 216.539062 54.324219 216.644531 54.679688 216.792969 C 55.039062 216.941406 55.378906 217.125 55.699219 217.339844 C 56.019531 217.550781 56.316406 217.796875 56.585938 218.074219 C 57.800781 219.175781 59.046875 220.246094 60.308594 221.292969 C 61.570312 222.335938 62.859375 223.351562 64.171875 224.335938 C 65.484375 225.316406 66.820312 226.273438 68.175781 227.195312 C 69.527344 228.121094 70.90625 229.011719 72.300781 229.875 C 73.699219 230.730469 75.117188 231.554688 76.550781 232.351562 C 77.984375 233.144531 79.4375 233.90625 80.90625 234.632812 C 82.378906 235.359375 83.863281 236.054688 85.363281 236.710938 C 86.867188 237.371094 88.382812 237.996094 89.914062 238.582031 C 91.445312 239.171875 92.992188 239.722656 94.550781 240.238281 C 96.105469 240.753906 97.671875 241.238281 99.25 241.683594 C 100.828125 242.125 102.417969 242.535156 104.015625 242.90625 C 105.613281 243.277344 107.214844 243.609375 108.832031 243.90625 C 110.445312 244.203125 112.066406 244.460938 113.6875 244.6875 C 115.3125 244.90625 116.941406 245.089844 118.578125 245.238281 C 120.210938 245.382812 121.84375 245.496094 123.484375 245.566406 C 125.121094 245.636719 126.761719 245.671875 128.398438 245.667969 C 130.042969 245.664062 131.683594 245.625 133.320312 245.539062 C 134.957031 245.460938 136.59375 245.339844 138.222656 245.1875 C 139.855469 245.03125 141.488281 244.839844 143.109375 244.609375 C 144.734375 244.375 146.347656 244.105469 147.964844 243.804688 C 149.574219 243.496094 151.179688 243.15625 152.773438 242.773438 C 154.367188 242.394531 155.953125 241.980469 157.527344 241.527344 C 159.109375 241.074219 160.671875 240.585938 162.226562 240.058594 C 163.78125 239.53125 165.320312 238.96875 166.851562 238.375 C 168.375 237.78125 169.890625 237.144531 171.386719 236.484375 C 172.886719 235.816406 174.371094 235.113281 175.835938 234.378906 C 177.304688 233.644531 178.75 232.875 180.179688 232.074219 C 181.609375 231.273438 183.023438 230.4375 184.414062 229.570312 C 185.808594 228.703125 187.179688 227.804688 188.53125 226.875 C 189.882812 225.941406 191.207031 224.980469 192.515625 223.992188 C 193.824219 223 195.105469 221.976562 196.363281 220.929688 C 197.621094 219.875 198.855469 218.796875 200.066406 217.6875 C 200.335938 217.410156 200.632812 217.164062 200.949219 216.949219 C 201.269531 216.726562 201.609375 216.546875 201.964844 216.398438 C 202.320312 216.25 202.691406 216.136719 203.066406 216.058594 C 203.445312 215.988281 203.832031 215.949219 204.21875 215.949219 C 204.601562 215.953125 204.988281 215.992188 205.363281 216.070312 C 205.746094 216.144531 206.109375 216.261719 206.464844 216.410156 C 206.820312 216.5625 207.160156 216.746094 207.476562 216.96875 C 207.796875 217.1875 208.089844 217.4375 208.359375 217.714844 Z M 219.777344 228.886719 " fill-opacity="1" fill-rule="nonzero"/><path fill="#fcc434" d="M 59.953125 245.335938 C 58.574219 244.445312 57.738281 243.433594 57.457031 242.289062 C 57.167969 241.148438 57.425781 239.949219 58.238281 238.699219 L 62.238281 232.496094 L 64.304688 233.84375 L 60.402344 239.890625 C 59.894531 240.671875 59.691406 241.386719 59.796875 242.035156 C 59.914062 242.699219 60.335938 243.265625 61.066406 243.734375 C 61.808594 244.210938 62.515625 244.367188 63.191406 244.203125 C 63.878906 244.03125 64.480469 243.550781 64.988281 242.757812 L 68.851562 236.769531 L 70.9375 238.097656 L 66.996094 244.203125 C 66.179688 245.460938 65.148438 246.191406 63.914062 246.386719 C 62.691406 246.59375 61.367188 246.242188 59.953125 245.335938 Z M 59.953125 245.335938 " fill-opacity="1" fill-rule="nonzero"/><path fill="#fcc434" d="M 81.871094 256.445312 L 80.605469 246.023438 C 80.371094 246.882812 80.144531 247.566406 79.941406 248.074219 L 77.246094 254.511719 L 75.199219 253.671875 L 79.765625 242.746094 L 82.378906 243.839844 L 83.667969 254.335938 C 83.902344 253.515625 84.15625 252.789062 84.425781 252.152344 L 87.082031 245.789062 L 89.109375 246.648438 L 84.542969 257.574219 Z M 81.871094 256.445312 " fill-opacity="1" fill-rule="nonzero"/><path fill="#fcc434" d="M 96.019531 261.121094 L 98.949219 249.652344 L 101.347656 250.253906 L 98.421875 261.726562 Z M 96.019531 261.121094 " fill-opacity="1" fill-rule="nonzero"/><path fill="#fcc434" d="M 116.015625 264.734375 L 113.515625 264.460938 L 110.433594 252.226562 L 113.007812 252.5 L 114.609375 260.324219 C 114.695312 260.832031 114.824219 261.59375 114.980469 262.609375 L 115.234375 261.90625 L 115.839844 260.441406 L 119.058594 253.164062 L 121.632812 253.4375 Z M 116.015625 264.734375 " fill-opacity="1" fill-rule="nonzero"/><path fill="#fcc434" d="M 131.4375 265.375 L 130.71875 253.550781 L 140.023438 252.984375 L 140.140625 254.898438 L 133.3125 255.328125 L 133.488281 258.292969 L 139.789062 257.902344 L 139.90625 259.816406 L 133.605469 260.203125 L 133.800781 263.328125 L 140.960938 262.878906 L 141.078125 264.789062 Z M 131.4375 265.375 " fill-opacity="1" fill-rule="nonzero"/><path fill="#fcc434" d="M 160.550781 261.199219 L 156.824219 257.433594 L 153.996094 258.117188 L 155.050781 262.507812 L 152.632812 263.074219 L 149.878906 251.5625 L 155.65625 250.195312 C 157.019531 249.875 158.144531 249.914062 159.03125 250.3125 C 159.929688 250.71875 160.503906 251.480469 160.765625 252.597656 C 160.960938 253.390625 160.894531 254.136719 160.570312 254.839844 C 160.261719 255.53125 159.738281 256.066406 159.011719 256.441406 L 163.285156 260.539062 Z M 158.347656 253.261719 C 158.085938 252.15625 157.246094 251.773438 155.832031 252.109375 L 152.75 252.851562 L 153.566406 256.265625 L 156.730469 255.503906 C 157.402344 255.347656 157.871094 255.074219 158.132812 254.683594 C 158.40625 254.285156 158.476562 253.804688 158.347656 253.261719 Z M 158.347656 253.261719 " fill-opacity="1" fill-rule="nonzero"/><path fill="#fcc434" d="M 181.550781 249.898438 C 182.003906 250.96875 181.960938 251.957031 181.414062 252.863281 C 180.867188 253.761719 179.835938 254.542969 178.3125 255.207031 C 176.917969 255.804688 175.71875 256.035156 174.703125 255.890625 C 173.6875 255.734375 172.851562 255.203125 172.1875 254.289062 L 174.234375 252.980469 C 174.636719 253.488281 175.113281 253.78125 175.660156 253.859375 C 176.207031 253.929688 176.859375 253.792969 177.628906 253.449219 C 179.230469 252.761719 179.816406 251.9375 179.386719 250.972656 C 179.253906 250.660156 179.054688 250.457031 178.78125 250.347656 C 178.507812 250.230469 178.175781 250.171875 177.785156 250.171875 C 177.394531 250.171875 176.691406 250.285156 175.679688 250.503906 C 174.765625 250.660156 174.128906 250.753906 173.765625 250.777344 C 173.402344 250.804688 173.054688 250.796875 172.734375 250.757812 C 172.410156 250.710938 172.109375 250.613281 171.835938 250.464844 C 171.5625 250.324219 171.316406 250.128906 171.09375 249.878906 C 170.859375 249.621094 170.660156 249.292969 170.488281 248.902344 C 170.058594 247.917969 170.109375 247.003906 170.625 246.152344 C 171.132812 245.292969 172.097656 244.566406 173.511719 243.96875 C 174.863281 243.382812 175.960938 243.164062 176.808594 243.304688 C 177.667969 243.4375 178.410156 243.945312 179.035156 244.828125 L 176.945312 246.09375 C 176.636719 245.664062 176.253906 245.410156 175.816406 245.332031 C 175.371094 245.246094 174.820312 245.34375 174.15625 245.625 C 172.78125 246.210938 172.273438 246.933594 172.636719 247.792969 C 172.765625 248.078125 172.941406 248.289062 173.160156 248.417969 C 173.382812 248.535156 173.660156 248.59375 174 248.59375 C 174.351562 248.59375 175 248.503906 175.953125 248.320312 C 177.109375 248.085938 177.945312 247.96875 178.46875 247.96875 C 179 247.957031 179.453125 248.019531 179.835938 248.164062 C 180.210938 248.292969 180.542969 248.503906 180.828125 248.789062 C 181.113281 249.074219 181.355469 249.445312 181.550781 249.898438 Z M 181.550781 249.898438 " fill-opacity="1" fill-rule="nonzero"/><path fill="#fcc434" d="M 193.144531 247.488281 L 186.6875 237.558594 L 194.511719 232.464844 L 195.542969 234.066406 L 189.808594 237.8125 L 191.429688 240.308594 L 196.734375 236.855469 L 197.789062 238.476562 L 192.480469 241.929688 L 194.199219 244.542969 L 200.207031 240.621094 L 201.242188 242.21875 Z M 193.144531 247.488281 " fill-opacity="1" fill-rule="nonzero"/><path fill="#1bbefc" d="M 157.769531 232.082031 L 160.015625 232.082031 L 160.015625 233.796875 L 122.203125 233.796875 L 122.203125 232.082031 L 124.449219 232.082031 C 127.4375 232.082031 129.992188 231.019531 132.113281 228.882812 C 134.246094 226.75 135.375 224.191406 135.492188 221.195312 L 135.492188 125.378906 C 135.375 122.390625 134.246094 119.855469 132.113281 117.789062 C 129.992188 115.722656 127.4375 114.6875 124.449219 114.6875 L 122.203125 114.6875 L 122.203125 112.949219 L 160.015625 112.949219 L 160.015625 114.6875 L 157.769531 114.6875 C 154.777344 114.6875 152.214844 115.722656 150.085938 117.789062 C 147.949219 119.855469 146.824219 122.390625 146.707031 125.378906 L 146.707031 221.195312 C 146.707031 224.191406 147.800781 226.75 149.988281 228.882812 C 152.183594 231.019531 154.777344 232.082031 157.769531 232.082031 Z M 277.390625 259.6875 L 277.390625 261.425781 C 273.019531 262.449219 268.648438 262.964844 264.277344 262.964844 C 245.402344 262.964844 227.101562 253.527344 209.375 234.65625 L 152.230469 173.726562 L 192.988281 122.628906 C 193.894531 121.472656 194.355469 120.4375 194.355469 119.527344 C 194.355469 118.605469 194.183594 117.800781 193.847656 117.105469 C 192.917969 115.378906 191.25 114.511719 188.832031 114.511719 L 187.113281 114.511719 L 187.113281 112.949219 L 223.542969 112.949219 L 223.542969 114.511719 L 222.839844 114.511719 C 215.238281 114.511719 209.03125 117.21875 204.207031 122.628906 L 163.976562 169.0625 L 222.664062 231.730469 C 230.257812 239.894531 238.804688 246.597656 248.300781 251.824219 C 257.792969 257.066406 267.488281 259.6875 277.390625 259.6875 Z M 277.390625 259.6875 " fill-opacity="1" fill-rule="nonzero"/><path fill="#fffdfb" d="M 154.957031 38.84375 C 159.417969 35.824219 164.691406 33.472656 170.785156 31.789062 C 176.800781 30.121094 181.738281 29.292969 185.597656 29.292969 L 196.160156 29.292969 L 196.160156 38.652344 L 192.46875 38.808594 C 187.226562 39.03125 182.332031 40.0625 177.78125 41.890625 C 173.183594 43.738281 169.433594 45.847656 166.53125 48.203125 C 163.597656 50.578125 160.730469 53.761719 157.910156 57.765625 C 154.976562 61.933594 152.726562 65.464844 151.164062 68.351562 C 149.570312 71.300781 147.703125 75.101562 145.5625 79.746094 L 95.140625 190.019531 C 90.898438 199.304688 88.777344 204.996094 88.777344 207.101562 L 88.777344 210.953125 L 80.773438 210.953125 L 28.792969 92.375 C 27.410156 89.222656 25.570312 86.921875 23.273438 85.46875 C 20.941406 83.992188 18.636719 83.253906 16.359375 83.253906 L 11.050781 83.253906 L 11.050781 73.730469 L 59.574219 73.730469 L 59.574219 83.253906 L 54.085938 83.253906 C 53.082031 83.253906 52.304688 83.441406 51.765625 83.828125 C 51.222656 84.203125 50.789062 84.851562 50.460938 85.773438 C 50.371094 86.050781 50.320312 86.46875 50.320312 87.019531 C 50.320312 87.472656 50.527344 88.183594 50.9375 89.164062 L 88.863281 184.269531 L 85.285156 185.691406 L 81.726562 184.203125 L 126.714844 76.644531 C 134.152344 59.117188 143.566406 46.519531 154.960938 38.835938 Z M 159.273438 45.226562 C 149.140625 52.058594 140.660156 63.523438 133.824219 79.617188 L 85.199219 195.886719 L 43.820312 92.128906 C 43.015625 90.203125 42.613281 88.5 42.613281 87.019531 C 42.613281 85.632812 42.808594 84.355469 43.199219 83.179688 C 44.082031 80.714844 45.464844 78.828125 47.339844 77.511719 C 49.214844 76.199219 51.460938 75.546875 54.085938 75.546875 L 55.71875 75.546875 L 55.71875 79.398438 L 51.863281 79.398438 L 51.863281 77.585938 L 55.71875 77.585938 L 55.71875 81.4375 L 14.90625 81.4375 L 14.90625 77.585938 L 18.761719 77.585938 L 18.761719 79.398438 L 14.90625 79.398438 L 14.90625 75.546875 L 16.359375 75.546875 C 20.125 75.546875 23.804688 76.683594 27.394531 78.957031 C 31.023438 81.246094 33.84375 84.691406 35.847656 89.28125 L 86.820312 205.550781 L 83.289062 207.101562 L 83.289062 203.242188 L 84.921875 203.242188 L 84.921875 207.101562 L 81.070312 207.101562 C 81.070312 203.882812 83.421875 197.117188 88.128906 186.8125 L 138.5625 76.511719 C 140.773438 71.726562 142.710938 67.78125 144.382812 64.6875 C 146.089844 61.53125 148.496094 57.742188 151.605469 53.328125 C 154.832031 48.742188 158.191406 45.035156 161.671875 42.210938 C 165.179688 39.367188 169.589844 36.875 174.90625 34.738281 C 180.269531 32.578125 186.015625 31.371094 192.144531 31.105469 L 192.308594 34.960938 L 188.449219 34.960938 L 188.449219 33.144531 L 192.308594 33.144531 L 192.308594 37 L 185.597656 37 C 182.4375 37 178.183594 37.738281 172.835938 39.21875 C 167.558594 40.675781 163.039062 42.679688 159.277344 45.226562 Z M 159.273438 45.226562 " fill-opacity="1" fill-rule="nonzero"/><path fill="#1bbefc" d="M 157.113281 42.035156 C 161.21875 39.257812 166.117188 37.074219 171.804688 35.5 C 177.484375 33.929688 182.074219 33.140625 185.578125 33.140625 C 189.089844 33.140625 191.324219 33.140625 192.289062 33.140625 L 192.289062 34.953125 C 186.617188 35.203125 181.292969 36.328125 176.328125 38.328125 C 171.375 40.320312 167.285156 42.617188 164.078125 45.21875 C 160.878906 47.808594 157.765625 51.253906 154.75 55.558594 C 151.730469 59.851562 149.40625 63.507812 147.765625 66.523438 C 146.136719 69.542969 144.234375 73.410156 142.050781 78.132812 L 91.632812 188.421875 C 87.15625 198.21875 84.921875 204.441406 84.921875 207.09375 L 83.285156 207.09375 L 32.324219 90.832031 C 30.617188 86.960938 28.285156 84.082031 25.316406 82.207031 C 22.363281 80.335938 19.371094 79.398438 16.34375 79.398438 L 14.898438 79.398438 L 14.898438 77.585938 L 55.714844 77.585938 L 55.714844 79.398438 L 54.078125 79.398438 C 50.449219 79.398438 48.027344 81.089844 46.820312 84.472656 C 46.585938 85.203125 46.46875 86.050781 46.46875 87.027344 C 46.46875 87.992188 46.765625 89.195312 47.363281 90.636719 L 85.273438 185.691406 L 130.265625 78.132812 C 137.390625 61.328125 146.339844 49.292969 157.113281 42.035156 Z M 157.113281 42.035156 " fill-opacity="1" fill-rule="nonzero"/></svg>